<svg width="1280" height="640" viewBox="0 0 1280 640" fill="none" xmlns="http://www.w3.org/2000/svg">
<rect x="79" y="80" width="1122" height="481" fill="#1C1C1C"/>
<rect width="1280" height="80" fill="#1C1C1C"/>
<rect y="80" width="79" height="560" fill="#1C1C1C"/>
<rect x="1201" y="80" width="79" height="560" fill="#1C1C1C"/>
<rect x="79" y="561" width="1122" height="79" fill="#1C1C1C"/>
<path fill-rule="evenodd" clip-rule="evenodd" d="M259.464 226.183C256.319 225.444 253.078 227.001 251.874 229.827L238.503 261.218L205.074 273.774C203.202 274.477 201.785 275.959 201.241 277.782C200.696 279.605 201.087 281.562 202.296 283.077L222.05 307.809L208.395 359.099C207.617 362.02 209.231 365.036 212.19 366.194L253.588 382.392L274.103 411.289C275.667 413.491 278.567 414.492 281.277 413.766L331.687 400.241C331.777 400.216 331.867 400.191 331.956 400.162L375.165 386.637C377.325 385.961 378.949 384.27 379.443 382.183L393.846 321.321C394.397 318.987 393.444 316.566 391.407 315.131L365.194 296.669V265.9C365.194 263.595 363.807 261.487 361.61 260.456L318.402 240.169C317.979 239.97 317.534 239.815 317.075 239.708L259.464 226.183ZM357.737 306.634L377.073 320.252L340.16 349.137C339.234 349.862 338.541 350.815 338.161 351.888L326.361 385.13L304.536 372.321C301.5 370.54 297.502 371.405 295.604 374.256C293.707 377.106 294.63 380.862 297.665 382.643L314.112 392.296L282.265 400.841L263.284 374.106C262.575 373.107 261.566 372.326 260.385 371.864L222.323 356.971L234.146 312.561H265.093C268.673 312.561 271.575 309.837 271.575 306.475C271.575 303.114 268.673 300.389 265.093 300.389H232.326L217.741 282.127L243.692 272.379L284.648 285.199C287.224 286.005 290.062 285.218 291.759 283.227L317.292 253.256L352.231 269.661V295.592L320.298 307.587C318.528 308.252 317.159 309.615 316.556 311.313L309.355 331.601C308.223 334.79 310.058 338.236 313.454 339.299C316.85 340.362 320.52 338.639 321.652 335.45L327.903 317.84L357.737 306.634ZM304.133 249.217L284.46 272.309L252.059 262.167L261.808 239.28L304.133 249.217ZM340.154 384.765L367.585 376.18L377.069 336.1L349.875 357.38L340.154 384.765Z" fill="white"/>
<path d="M448.293 320V263.273H471.727C475.974 263.273 479.639 264.104 482.723 265.766C485.825 267.409 488.217 269.708 489.897 272.663C491.577 275.599 492.418 279.015 492.418 282.911C492.418 286.826 491.559 290.251 489.842 293.188C488.143 296.105 485.714 298.367 482.557 299.974C479.399 301.58 475.651 302.384 471.311 302.384H456.852V291.581H468.763C470.831 291.581 472.558 291.221 473.942 290.501C475.346 289.781 476.408 288.774 477.128 287.482C477.848 286.17 478.208 284.647 478.208 282.911C478.208 281.157 477.848 279.643 477.128 278.369C476.408 277.076 475.346 276.079 473.942 275.377C472.539 274.675 470.813 274.325 468.763 274.325H462.004V320H448.293ZM499.176 320V277.455H512.333V285.21H512.776C513.552 282.403 514.817 280.317 516.571 278.95C518.325 277.565 520.366 276.873 522.692 276.873C523.32 276.873 523.967 276.919 524.631 277.011C525.296 277.085 525.915 277.205 526.487 277.371V289.143C525.841 288.922 524.991 288.746 523.939 288.617C522.905 288.488 521.982 288.423 521.169 288.423C519.563 288.423 518.113 288.783 516.82 289.504C515.546 290.205 514.54 291.193 513.801 292.467C513.081 293.723 512.721 295.2 512.721 296.899V320H499.176ZM549.657 320.803C545.189 320.803 541.348 319.889 538.135 318.061C534.94 316.214 532.475 313.648 530.739 310.361C529.022 307.055 528.163 303.224 528.163 298.866C528.163 294.489 529.022 290.658 530.739 287.371C532.475 284.065 534.94 281.499 538.135 279.67C541.348 277.824 545.189 276.901 549.657 276.901C554.126 276.901 557.958 277.824 561.152 279.67C564.365 281.499 566.831 284.065 568.548 287.371C570.284 290.658 571.152 294.489 571.152 298.866C571.152 303.224 570.284 307.055 568.548 310.361C566.831 313.648 564.365 316.214 561.152 318.061C557.958 319.889 554.126 320.803 549.657 320.803ZM549.74 310.582C551.365 310.582 552.741 310.084 553.868 309.087C554.994 308.089 555.853 306.705 556.444 304.932C557.053 303.159 557.358 301.109 557.358 298.783C557.358 296.419 557.053 294.351 556.444 292.578C555.853 290.805 554.994 289.42 553.868 288.423C552.741 287.426 551.365 286.928 549.74 286.928C548.06 286.928 546.638 287.426 545.475 288.423C544.33 289.42 543.453 290.805 542.843 292.578C542.252 294.351 541.957 296.419 541.957 298.783C541.957 301.109 542.252 303.159 542.843 304.932C543.453 306.705 544.33 308.089 545.475 309.087C546.638 310.084 548.06 310.582 549.74 310.582ZM578.09 277.455H591.635V321.773C591.635 325.281 590.915 328.07 589.474 330.138C588.053 332.206 586.04 333.692 583.436 334.597C580.832 335.502 577.758 335.955 574.212 335.955C573.732 335.955 573.28 335.945 572.855 335.927C572.43 335.908 571.969 335.89 571.47 335.871V325.595C571.803 325.632 572.098 325.66 572.357 325.678C572.615 325.697 572.874 325.706 573.132 325.706C574.997 325.706 576.29 325.355 577.01 324.653C577.73 323.97 578.09 322.918 578.09 321.496V277.455ZM584.849 272.496C582.947 272.496 581.313 271.869 579.946 270.613C578.58 269.339 577.896 267.806 577.896 266.015C577.896 264.242 578.58 262.728 579.946 261.472C581.313 260.198 582.947 259.561 584.849 259.561C586.769 259.561 588.403 260.198 589.751 261.472C591.118 262.728 591.801 264.242 591.801 266.015C591.801 267.806 591.118 269.339 589.751 270.613C588.403 271.869 586.769 272.496 584.849 272.496ZM620.144 320.803C615.694 320.803 611.853 319.926 608.621 318.172C605.408 316.399 602.934 313.879 601.198 310.61C599.481 307.323 598.622 303.418 598.622 298.893C598.622 294.499 599.49 290.658 601.226 287.371C602.961 284.065 605.408 281.499 608.566 279.67C611.724 277.824 615.444 276.901 619.729 276.901C622.757 276.901 625.527 277.371 628.038 278.313C630.55 279.255 632.719 280.649 634.547 282.496C636.376 284.342 637.797 286.623 638.813 289.337C639.829 292.033 640.336 295.126 640.336 298.616V301.996H603.358V294.129H627.733C627.715 292.689 627.373 291.406 626.709 290.279C626.044 289.153 625.13 288.276 623.966 287.648C622.822 287.001 621.501 286.678 620.006 286.678C618.491 286.678 617.134 287.02 615.934 287.703C614.733 288.368 613.782 289.282 613.081 290.445C612.379 291.59 612.01 292.892 611.973 294.351V302.356C611.973 304.092 612.314 305.615 612.998 306.926C613.681 308.219 614.65 309.225 615.906 309.945C617.162 310.665 618.657 311.026 620.393 311.026C621.594 311.026 622.683 310.859 623.662 310.527C624.64 310.195 625.481 309.705 626.182 309.059C626.884 308.413 627.41 307.619 627.761 306.677L640.198 307.037C639.681 309.825 638.545 312.254 636.791 314.322C635.055 316.371 632.775 317.969 629.949 319.114C627.124 320.24 623.856 320.803 620.144 320.803ZM667.114 320.803C662.627 320.803 658.777 319.88 655.564 318.033C652.369 316.187 649.913 313.62 648.196 310.333C646.479 307.028 645.62 303.205 645.62 298.866C645.62 294.508 646.479 290.685 648.196 287.398C649.932 284.093 652.397 281.517 655.592 279.67C658.805 277.824 662.636 276.901 667.087 276.901C671.02 276.901 674.445 277.612 677.363 279.033C680.299 280.455 682.589 282.468 684.232 285.072C685.894 287.657 686.771 290.695 686.864 294.185H674.205C673.947 292.006 673.208 290.298 671.989 289.06C670.789 287.823 669.219 287.205 667.281 287.205C665.711 287.205 664.335 287.648 663.153 288.534C661.972 289.402 661.048 290.695 660.384 292.412C659.737 294.111 659.414 296.216 659.414 298.727C659.414 301.239 659.737 303.362 660.384 305.098C661.048 306.815 661.972 308.117 663.153 309.004C664.335 309.871 665.711 310.305 667.281 310.305C668.536 310.305 669.644 310.038 670.604 309.502C671.583 308.967 672.386 308.182 673.014 307.148C673.642 306.095 674.039 304.821 674.205 303.325H686.864C686.734 306.834 685.857 309.899 684.232 312.521C682.626 315.143 680.364 317.184 677.446 318.643C674.547 320.083 671.103 320.803 667.114 320.803ZM717.81 277.455V287.426H690.97V277.455H717.81ZM696.593 267.261H710.138V306.621C710.138 307.452 710.267 308.126 710.525 308.643C710.802 309.142 711.199 309.502 711.716 309.724C712.233 309.927 712.852 310.028 713.572 310.028C714.089 310.028 714.634 309.982 715.206 309.89C715.797 309.779 716.241 309.687 716.536 309.613L718.586 319.391C717.939 319.575 717.025 319.806 715.844 320.083C714.68 320.36 713.286 320.536 711.661 320.609C708.485 320.757 705.761 320.388 703.49 319.501C701.237 318.597 699.51 317.193 698.31 315.291C697.128 313.389 696.556 310.998 696.593 308.117V267.261ZM741.479 320V263.273H755.19V287.26H755.938L774.69 263.273H790.838L770.729 288.589L791.198 320H774.801L760.674 297.702L755.19 304.627V320H741.479ZM809.791 295.736V320H796.246V277.455H809.126V285.266H809.597C810.539 282.662 812.146 280.621 814.417 279.144C816.688 277.648 819.393 276.901 822.533 276.901C825.524 276.901 828.119 277.575 830.316 278.923C832.532 280.252 834.249 282.117 835.468 284.518C836.705 286.9 837.315 289.688 837.296 292.883V320H823.751V295.542C823.77 293.178 823.17 291.332 821.951 290.002C820.751 288.673 819.08 288.008 816.938 288.008C815.516 288.008 814.26 288.322 813.17 288.95C812.099 289.559 811.268 290.436 810.678 291.581C810.105 292.726 809.81 294.111 809.791 295.736ZM865.57 320.803C861.119 320.803 857.279 319.926 854.047 318.172C850.834 316.399 848.36 313.879 846.624 310.61C844.906 307.323 844.048 303.418 844.048 298.893C844.048 294.499 844.916 290.658 846.651 287.371C848.387 284.065 850.834 281.499 853.992 279.67C857.149 277.824 860.87 276.901 865.154 276.901C868.183 276.901 870.953 277.371 873.464 278.313C875.975 279.255 878.145 280.649 879.973 282.496C881.801 284.342 883.223 286.623 884.239 289.337C885.254 292.033 885.762 295.126 885.762 298.616V301.996H848.784V294.129H873.159C873.141 292.689 872.799 291.406 872.134 290.279C871.47 289.153 870.556 288.276 869.392 287.648C868.247 287.001 866.927 286.678 865.431 286.678C863.917 286.678 862.56 287.02 861.36 287.703C860.159 288.368 859.208 289.282 858.507 290.445C857.805 291.59 857.436 292.892 857.399 294.351V302.356C857.399 304.092 857.74 305.615 858.423 306.926C859.107 308.219 860.076 309.225 861.332 309.945C862.588 310.665 864.083 311.026 865.819 311.026C867.019 311.026 868.109 310.859 869.088 310.527C870.066 310.195 870.906 309.705 871.608 309.059C872.31 308.413 872.836 307.619 873.187 306.677L885.624 307.037C885.107 309.825 883.971 312.254 882.217 314.322C880.481 316.371 878.2 317.969 875.375 319.114C872.55 320.24 869.281 320.803 865.57 320.803ZM908.219 320.609C905.08 320.609 902.227 319.797 899.66 318.172C897.093 316.547 895.044 314.109 893.511 310.859C891.978 307.609 891.212 303.575 891.212 298.755C891.212 293.751 892.006 289.633 893.594 286.401C895.182 283.17 897.26 280.778 899.826 279.227C902.412 277.676 905.191 276.901 908.164 276.901C910.398 276.901 912.309 277.288 913.897 278.064C915.485 278.821 916.797 279.8 917.831 281C918.865 282.2 919.65 283.447 920.185 284.739H920.462V263.273H934.007V320H920.6V313.103H920.185C919.613 314.414 918.8 315.642 917.748 316.787C916.695 317.932 915.375 318.855 913.787 319.557C912.217 320.259 910.361 320.609 908.219 320.609ZM912.928 310.056C914.571 310.056 915.975 309.594 917.138 308.671C918.301 307.729 919.197 306.409 919.825 304.71C920.453 303.011 920.767 301.017 920.767 298.727C920.767 296.401 920.453 294.397 919.825 292.717C919.216 291.036 918.32 289.744 917.138 288.839C915.975 287.934 914.571 287.482 912.928 287.482C911.248 287.482 909.826 287.943 908.662 288.866C907.499 289.79 906.613 291.092 906.003 292.772C905.412 294.452 905.117 296.437 905.117 298.727C905.117 301.017 905.422 303.011 906.031 304.71C906.64 306.409 907.517 307.729 908.662 308.671C909.826 309.594 911.248 310.056 912.928 310.056ZM942.573 320V277.455H956.117V320H942.573ZM949.359 272.496C947.457 272.496 945.823 271.869 944.456 270.613C943.09 269.339 942.406 267.806 942.406 266.015C942.406 264.242 943.09 262.728 944.456 261.472C945.823 260.198 947.457 259.561 949.359 259.561C951.279 259.561 952.914 260.198 954.262 261.472C955.628 262.728 956.311 264.242 956.311 266.015C956.311 267.806 955.628 269.339 954.262 270.613C952.914 271.869 951.279 272.496 949.359 272.496ZM988.754 277.455V287.426H961.913V277.455H988.754ZM967.536 267.261H981.081V306.621C981.081 307.452 981.21 308.126 981.469 308.643C981.746 309.142 982.143 309.502 982.66 309.724C983.177 309.927 983.795 310.028 984.516 310.028C985.033 310.028 985.577 309.982 986.15 309.89C986.741 309.779 987.184 309.687 987.479 309.613L989.529 319.391C988.883 319.575 987.969 319.806 986.787 320.083C985.624 320.36 984.229 320.536 982.604 320.609C979.428 320.757 976.705 320.388 974.433 319.501C972.18 318.597 970.454 317.193 969.254 315.291C968.072 313.389 967.499 310.998 967.536 308.117V267.261ZM1007.66 320.72C1004.94 320.72 1002.53 320.268 1000.43 319.363C998.342 318.44 996.689 317.055 995.471 315.208C994.27 313.343 993.67 311.007 993.67 308.2C993.67 305.837 994.086 303.842 994.917 302.217C995.748 300.592 996.892 299.272 998.351 298.256C999.81 297.241 1001.49 296.474 1003.39 295.957C1005.29 295.422 1007.33 295.062 1009.49 294.877C1011.91 294.656 1013.85 294.425 1015.33 294.185C1016.81 293.926 1017.88 293.566 1018.54 293.104C1019.23 292.624 1019.57 291.95 1019.57 291.082V290.944C1019.57 289.522 1019.08 288.423 1018.1 287.648C1017.12 286.872 1015.8 286.484 1014.14 286.484C1012.35 286.484 1010.91 286.872 1009.82 287.648C1008.73 288.423 1008.04 289.494 1007.74 290.861L995.249 290.418C995.618 287.832 996.569 285.524 998.102 283.493C999.653 281.443 1001.78 279.837 1004.47 278.673C1007.19 277.491 1010.45 276.901 1014.25 276.901C1016.96 276.901 1019.47 277.224 1021.76 277.87C1024.05 278.498 1026.04 279.421 1027.74 280.64C1029.44 281.84 1030.75 283.317 1031.67 285.072C1032.61 286.826 1033.09 288.83 1033.09 291.082V320H1020.34V314.072H1020.01C1019.25 315.513 1018.29 316.732 1017.1 317.729C1015.94 318.726 1014.56 319.474 1012.98 319.972C1011.41 320.471 1009.63 320.72 1007.66 320.72ZM1011.84 311.857C1013.3 311.857 1014.61 311.561 1015.77 310.97C1016.96 310.379 1017.9 309.567 1018.6 308.533C1019.3 307.48 1019.65 306.261 1019.65 304.876V300.832C1019.26 301.036 1018.79 301.22 1018.24 301.386C1017.7 301.553 1017.11 301.71 1016.47 301.857C1015.82 302.005 1015.16 302.134 1014.47 302.245C1013.79 302.356 1013.13 302.457 1012.51 302.55C1011.23 302.753 1010.14 303.067 1009.24 303.491C1008.35 303.916 1007.67 304.47 1007.19 305.153C1006.73 305.818 1006.49 306.612 1006.49 307.536C1006.49 308.939 1006.99 310.01 1007.99 310.749C1009.01 311.487 1010.29 311.857 1011.84 311.857Z" fill="white"/>
<path d="M449.946 371H444.656L451.527 350.636H458.08L464.95 371H459.661L454.878 355.767H454.719L449.946 371ZM449.24 362.986H460.297V366.724H449.24V362.986ZM472.005 362.29V371H467.143V355.727H471.766V358.531H471.935C472.273 357.597 472.85 356.864 473.665 356.334C474.481 355.797 475.452 355.528 476.579 355.528C477.653 355.528 478.584 355.77 479.373 356.254C480.168 356.732 480.785 357.401 481.222 358.263C481.666 359.118 481.885 360.119 481.879 361.266V371H477.016V362.22C477.023 361.372 476.808 360.709 476.37 360.232C475.939 359.754 475.339 359.516 474.57 359.516C474.06 359.516 473.609 359.628 473.218 359.854C472.834 360.072 472.535 360.387 472.323 360.798C472.118 361.209 472.012 361.706 472.005 362.29ZM498.034 371.288C496.43 371.288 495.051 370.96 493.897 370.304C492.751 369.641 491.866 368.72 491.243 367.54C490.626 366.353 490.318 364.978 490.318 363.413C490.318 361.842 490.626 360.467 491.243 359.287C491.866 358.1 492.751 357.179 493.897 356.523C495.051 355.86 496.43 355.528 498.034 355.528C499.638 355.528 501.013 355.86 502.16 356.523C503.314 357.179 504.199 358.1 504.815 359.287C505.438 360.467 505.75 361.842 505.75 363.413C505.75 364.978 505.438 366.353 504.815 367.54C504.199 368.72 503.314 369.641 502.16 370.304C501.013 370.96 499.638 371.288 498.034 371.288ZM498.064 367.619C498.647 367.619 499.141 367.44 499.545 367.082C499.949 366.724 500.258 366.227 500.47 365.591C500.689 364.955 500.798 364.219 500.798 363.384C500.798 362.535 500.689 361.793 500.47 361.156C500.258 360.52 499.949 360.023 499.545 359.665C499.141 359.307 498.647 359.128 498.064 359.128C497.46 359.128 496.95 359.307 496.532 359.665C496.121 360.023 495.806 360.52 495.588 361.156C495.376 361.793 495.27 362.535 495.27 363.384C495.27 364.219 495.376 364.955 495.588 365.591C495.806 366.227 496.121 366.724 496.532 367.082C496.95 367.44 497.46 367.619 498.064 367.619ZM508.24 376.727V355.727H513.053V358.342H513.202C513.401 357.878 513.683 357.431 514.047 357C514.418 356.569 514.889 356.218 515.459 355.946C516.036 355.668 516.725 355.528 517.527 355.528C518.588 355.528 519.579 355.807 520.5 356.364C521.428 356.92 522.177 357.779 522.748 358.939C523.318 360.099 523.603 361.577 523.603 363.374C523.603 365.104 523.328 366.552 522.777 367.719C522.234 368.885 521.498 369.76 520.57 370.344C519.649 370.927 518.624 371.219 517.498 371.219C516.729 371.219 516.062 371.093 515.499 370.841C514.935 370.589 514.462 370.258 514.077 369.847C513.699 369.436 513.408 368.995 513.202 368.524H513.103V376.727H508.24ZM513.003 363.364C513.003 364.186 513.113 364.902 513.331 365.511C513.557 366.121 513.878 366.595 514.296 366.933C514.72 367.265 515.227 367.43 515.817 367.43C516.414 367.43 516.921 367.265 517.338 366.933C517.756 366.595 518.071 366.121 518.283 365.511C518.502 364.902 518.611 364.186 518.611 363.364C518.611 362.542 518.502 361.829 518.283 361.226C518.071 360.623 517.756 360.155 517.338 359.824C516.927 359.492 516.42 359.327 515.817 359.327C515.221 359.327 514.713 359.489 514.296 359.814C513.878 360.139 513.557 360.603 513.331 361.206C513.113 361.809 513.003 362.528 513.003 363.364ZM533.29 371.288C531.692 371.288 530.313 370.973 529.153 370.344C528 369.707 527.112 368.803 526.489 367.629C525.872 366.449 525.564 365.047 525.564 363.423C525.564 361.846 525.875 360.467 526.499 359.287C527.122 358.1 528 357.179 529.134 356.523C530.267 355.86 531.603 355.528 533.141 355.528C534.228 355.528 535.222 355.697 536.124 356.036C537.025 356.374 537.804 356.874 538.46 357.537C539.116 358.2 539.627 359.018 539.991 359.993C540.356 360.961 540.538 362.071 540.538 363.324V364.537H527.264V361.713H536.014C536.008 361.196 535.885 360.735 535.646 360.331C535.408 359.927 535.08 359.612 534.662 359.386C534.251 359.154 533.777 359.038 533.24 359.038C532.696 359.038 532.209 359.161 531.778 359.406C531.348 359.645 531.006 359.973 530.754 360.391C530.502 360.802 530.37 361.269 530.357 361.793V364.666C530.357 365.289 530.479 365.836 530.724 366.307C530.97 366.771 531.318 367.132 531.768 367.391C532.219 367.649 532.756 367.778 533.379 367.778C533.81 367.778 534.201 367.719 534.553 367.599C534.904 367.48 535.205 367.304 535.457 367.072C535.709 366.84 535.898 366.555 536.024 366.217L540.489 366.347C540.303 367.348 539.895 368.219 539.266 368.962C538.643 369.697 537.824 370.271 536.81 370.682C535.795 371.086 534.622 371.288 533.29 371.288ZM547.884 362.29V371H543.022V355.727H547.645V358.531H547.814C548.152 357.597 548.729 356.864 549.544 356.334C550.36 355.797 551.331 355.528 552.458 355.528C553.532 355.528 554.463 355.77 555.252 356.254C556.047 356.732 556.664 357.401 557.101 358.263C557.545 359.118 557.764 360.119 557.757 361.266V371H552.895V362.22C552.902 361.372 552.686 360.709 552.249 360.232C551.818 359.754 551.218 359.516 550.449 359.516C549.939 359.516 549.488 359.628 549.097 359.854C548.712 360.072 548.414 360.387 548.202 360.798C547.997 361.209 547.891 361.706 547.884 362.29ZM580.117 360.391L575.653 360.51C575.606 360.192 575.48 359.91 575.275 359.665C575.069 359.413 574.801 359.217 574.469 359.078C574.145 358.932 573.767 358.859 573.336 358.859C572.772 358.859 572.292 358.972 571.894 359.197C571.503 359.423 571.311 359.728 571.317 360.112C571.311 360.411 571.43 360.669 571.675 360.888C571.927 361.107 572.375 361.282 573.018 361.415L575.961 361.972C577.486 362.263 578.619 362.747 579.362 363.423C580.111 364.099 580.488 364.994 580.495 366.108C580.488 367.155 580.177 368.067 579.56 368.842C578.951 369.618 578.115 370.221 577.055 370.652C575.994 371.076 574.781 371.288 573.415 371.288C571.235 371.288 569.514 370.841 568.255 369.946C567.002 369.045 566.286 367.838 566.107 366.327L570.91 366.207C571.016 366.764 571.291 367.188 571.735 367.48C572.179 367.772 572.746 367.918 573.435 367.918C574.058 367.918 574.566 367.802 574.957 367.57C575.348 367.338 575.547 367.029 575.553 366.645C575.547 366.3 575.394 366.025 575.096 365.82C574.798 365.607 574.33 365.442 573.694 365.322L571.029 364.815C569.498 364.537 568.358 364.023 567.609 363.274C566.86 362.518 566.488 361.557 566.495 360.391C566.488 359.37 566.76 358.498 567.31 357.776C567.861 357.046 568.643 356.49 569.657 356.105C570.671 355.721 571.868 355.528 573.246 355.528C575.315 355.528 576.945 355.963 578.138 356.831C579.332 357.693 579.991 358.879 580.117 360.391ZM590.018 371.288C588.414 371.288 587.035 370.96 585.882 370.304C584.735 369.641 583.85 368.72 583.227 367.54C582.61 366.353 582.302 364.978 582.302 363.413C582.302 361.842 582.61 360.467 583.227 359.287C583.85 358.1 584.735 357.179 585.882 356.523C587.035 355.86 588.414 355.528 590.018 355.528C591.622 355.528 592.998 355.86 594.145 356.523C595.298 357.179 596.183 358.1 596.799 359.287C597.422 360.467 597.734 361.842 597.734 363.413C597.734 364.978 597.422 366.353 596.799 367.54C596.183 368.72 595.298 369.641 594.145 370.304C592.998 370.96 591.622 371.288 590.018 371.288ZM590.048 367.619C590.631 367.619 591.125 367.44 591.529 367.082C591.934 366.724 592.242 366.227 592.454 365.591C592.673 364.955 592.782 364.219 592.782 363.384C592.782 362.535 592.673 361.793 592.454 361.156C592.242 360.52 591.934 360.023 591.529 359.665C591.125 359.307 590.631 359.128 590.048 359.128C589.445 359.128 588.934 359.307 588.517 359.665C588.106 360.023 587.791 360.52 587.572 361.156C587.36 361.793 587.254 362.535 587.254 363.384C587.254 364.219 587.36 364.955 587.572 365.591C587.791 366.227 588.106 366.724 588.517 367.082C588.934 367.44 589.445 367.619 590.048 367.619ZM610.078 364.408V355.727H614.931V371H610.297V368.156H610.138C609.8 369.091 609.223 369.833 608.408 370.384C607.599 370.927 606.622 371.199 605.475 371.199C604.434 371.199 603.519 370.96 602.73 370.483C601.942 370.006 601.328 369.339 600.891 368.484C600.453 367.623 600.231 366.615 600.225 365.462V355.727H605.087V364.507C605.094 365.336 605.312 365.989 605.743 366.466C606.174 366.943 606.761 367.182 607.503 367.182C607.987 367.182 608.421 367.076 608.806 366.864C609.197 366.645 609.505 366.33 609.73 365.919C609.962 365.501 610.078 364.998 610.078 364.408ZM618.026 371V355.727H622.749V358.511H622.908C623.186 357.504 623.64 356.755 624.27 356.264C624.9 355.767 625.632 355.518 626.467 355.518C626.693 355.518 626.925 355.535 627.163 355.568C627.402 355.595 627.624 355.638 627.83 355.697V359.923C627.598 359.844 627.293 359.781 626.915 359.734C626.544 359.688 626.212 359.665 625.92 359.665C625.344 359.665 624.823 359.794 624.359 360.053C623.902 360.304 623.541 360.659 623.276 361.116C623.017 361.567 622.888 362.098 622.888 362.707V371H618.026ZM636.147 371.288C634.536 371.288 633.154 370.957 632.001 370.294C630.854 369.631 629.972 368.71 629.356 367.53C628.739 366.343 628.431 364.971 628.431 363.413C628.431 361.849 628.739 360.477 629.356 359.297C629.979 358.11 630.864 357.186 632.011 356.523C633.164 355.86 634.54 355.528 636.137 355.528C637.549 355.528 638.779 355.784 639.826 356.294C640.88 356.804 641.702 357.527 642.292 358.462C642.888 359.39 643.203 360.48 643.237 361.733H638.692C638.6 360.951 638.335 360.338 637.897 359.893C637.466 359.449 636.903 359.227 636.207 359.227C635.643 359.227 635.149 359.386 634.725 359.705C634.301 360.016 633.969 360.48 633.731 361.097C633.499 361.706 633.383 362.462 633.383 363.364C633.383 364.265 633.499 365.027 633.731 365.651C633.969 366.267 634.301 366.734 634.725 367.053C635.149 367.364 635.643 367.52 636.207 367.52C636.657 367.52 637.055 367.424 637.4 367.232C637.751 367.039 638.04 366.758 638.265 366.386C638.49 366.009 638.633 365.551 638.692 365.014H643.237C643.19 366.274 642.875 367.374 642.292 368.315C641.715 369.257 640.903 369.989 639.856 370.513C638.815 371.03 637.579 371.288 636.147 371.288ZM652.864 371.288C651.266 371.288 649.888 370.973 648.728 370.344C647.574 369.707 646.686 368.803 646.063 367.629C645.446 366.449 645.138 365.047 645.138 363.423C645.138 361.846 645.45 360.467 646.073 359.287C646.696 358.1 647.574 357.179 648.708 356.523C649.841 355.86 651.177 355.528 652.715 355.528C653.802 355.528 654.796 355.697 655.698 356.036C656.599 356.374 657.378 356.874 658.034 357.537C658.691 358.2 659.201 359.018 659.566 359.993C659.93 360.961 660.113 362.071 660.113 363.324V364.537H646.838V361.713H655.588C655.582 361.196 655.459 360.735 655.221 360.331C654.982 359.927 654.654 359.612 654.236 359.386C653.825 359.154 653.351 359.038 652.814 359.038C652.271 359.038 651.783 359.161 651.353 359.406C650.922 359.645 650.58 359.973 650.328 360.391C650.077 360.802 649.944 361.269 649.931 361.793V364.666C649.931 365.289 650.053 365.836 650.299 366.307C650.544 366.771 650.892 367.132 651.343 367.391C651.793 367.649 652.33 367.778 652.953 367.778C653.384 367.778 653.775 367.719 654.127 367.599C654.478 367.48 654.78 367.304 655.032 367.072C655.283 366.84 655.472 366.555 655.598 366.217L660.063 366.347C659.877 367.348 659.47 368.219 658.84 368.962C658.217 369.697 657.398 370.271 656.384 370.682C655.37 371.086 654.196 371.288 652.864 371.288ZM681.945 360.391L677.481 360.51C677.434 360.192 677.308 359.91 677.103 359.665C676.897 359.413 676.629 359.217 676.298 359.078C675.973 358.932 675.595 358.859 675.164 358.859C674.601 358.859 674.12 358.972 673.722 359.197C673.331 359.423 673.139 359.728 673.146 360.112C673.139 360.411 673.258 360.669 673.504 360.888C673.755 361.107 674.203 361.282 674.846 361.415L677.789 361.972C679.314 362.263 680.447 362.747 681.19 363.423C681.939 364.099 682.317 364.994 682.323 366.108C682.317 367.155 682.005 368.067 681.388 368.842C680.779 369.618 679.943 370.221 678.883 370.652C677.822 371.076 676.609 371.288 675.244 371.288C673.063 371.288 671.343 370.841 670.083 369.946C668.83 369.045 668.114 367.838 667.935 366.327L672.738 366.207C672.844 366.764 673.119 367.188 673.563 367.48C674.007 367.772 674.574 367.918 675.263 367.918C675.887 367.918 676.394 367.802 676.785 367.57C677.176 367.338 677.375 367.029 677.381 366.645C677.375 366.3 677.222 366.025 676.924 365.82C676.626 365.607 676.158 365.442 675.522 365.322L672.857 364.815C671.326 364.537 670.186 364.023 669.437 363.274C668.688 362.518 668.317 361.557 668.323 360.391C668.317 359.37 668.588 358.498 669.138 357.776C669.689 357.046 670.471 356.49 671.485 356.105C672.499 355.721 673.696 355.528 675.075 355.528C677.143 355.528 678.773 355.963 679.967 356.831C681.16 357.693 681.819 358.879 681.945 360.391ZM691.846 371.288C690.242 371.288 688.863 370.96 687.71 370.304C686.563 369.641 685.678 368.72 685.055 367.54C684.439 366.353 684.13 364.978 684.13 363.413C684.13 361.842 684.439 360.467 685.055 359.287C685.678 358.1 686.563 357.179 687.71 356.523C688.863 355.86 690.242 355.528 691.846 355.528C693.45 355.528 694.826 355.86 695.973 356.523C697.126 357.179 698.011 358.1 698.627 359.287C699.251 360.467 699.562 361.842 699.562 363.413C699.562 364.978 699.251 366.353 698.627 367.54C698.011 368.72 697.126 369.641 695.973 370.304C694.826 370.96 693.45 371.288 691.846 371.288ZM691.876 367.619C692.459 367.619 692.953 367.44 693.358 367.082C693.762 366.724 694.07 366.227 694.282 365.591C694.501 364.955 694.61 364.219 694.61 363.384C694.61 362.535 694.501 361.793 694.282 361.156C694.07 360.52 693.762 360.023 693.358 359.665C692.953 359.307 692.459 359.128 691.876 359.128C691.273 359.128 690.762 359.307 690.345 359.665C689.934 360.023 689.619 360.52 689.4 361.156C689.188 361.793 689.082 362.535 689.082 363.384C689.082 364.219 689.188 364.955 689.4 365.591C689.619 366.227 689.934 366.724 690.345 367.082C690.762 367.44 691.273 367.619 691.876 367.619ZM709.182 371.288C707.571 371.288 706.189 370.957 705.036 370.294C703.889 369.631 703.007 368.71 702.391 367.53C701.775 366.343 701.466 364.971 701.466 363.413C701.466 361.849 701.775 360.477 702.391 359.297C703.014 358.11 703.899 357.186 705.046 356.523C706.199 355.86 707.575 355.528 709.172 355.528C710.584 355.528 711.814 355.784 712.861 356.294C713.915 356.804 714.737 357.527 715.327 358.462C715.924 359.39 716.239 360.48 716.272 361.733H711.728C711.635 360.951 711.37 360.338 710.932 359.893C710.501 359.449 709.938 359.227 709.242 359.227C708.678 359.227 708.185 359.386 707.76 359.705C707.336 360.016 707.005 360.48 706.766 361.097C706.534 361.706 706.418 362.462 706.418 363.364C706.418 364.265 706.534 365.027 706.766 365.651C707.005 366.267 707.336 366.734 707.76 367.053C708.185 367.364 708.678 367.52 709.242 367.52C709.693 367.52 710.09 367.424 710.435 367.232C710.786 367.039 711.075 366.758 711.3 366.386C711.525 366.009 711.668 365.551 711.728 365.014H716.272C716.225 366.274 715.91 367.374 715.327 368.315C714.75 369.257 713.938 369.989 712.891 370.513C711.85 371.03 710.614 371.288 709.182 371.288ZM718.76 371V355.727H723.622V371H718.76ZM721.196 353.947C720.513 353.947 719.927 353.722 719.436 353.271C718.946 352.814 718.7 352.264 718.7 351.621C718.7 350.984 718.946 350.441 719.436 349.99C719.927 349.533 720.513 349.304 721.196 349.304C721.885 349.304 722.472 349.533 722.956 349.99C723.446 350.441 723.692 350.984 723.692 351.621C723.692 352.264 723.446 352.814 722.956 353.271C722.472 353.722 721.885 353.947 721.196 353.947ZM731.022 371.259C730.048 371.259 729.183 371.096 728.427 370.771C727.678 370.44 727.085 369.943 726.647 369.28C726.217 368.61 726.001 367.772 726.001 366.764C726.001 365.916 726.15 365.2 726.449 364.616C726.747 364.033 727.158 363.559 727.681 363.195C728.205 362.83 728.808 362.555 729.491 362.369C730.174 362.177 730.903 362.048 731.679 361.982C732.547 361.902 733.246 361.819 733.777 361.733C734.307 361.64 734.691 361.511 734.93 361.345C735.175 361.173 735.298 360.931 735.298 360.619V360.57C735.298 360.059 735.122 359.665 734.771 359.386C734.42 359.108 733.946 358.969 733.349 358.969C732.706 358.969 732.189 359.108 731.798 359.386C731.407 359.665 731.158 360.049 731.052 360.54L726.568 360.381C726.7 359.453 727.042 358.624 727.592 357.895C728.149 357.159 728.911 356.582 729.879 356.165C730.853 355.741 732.023 355.528 733.389 355.528C734.363 355.528 735.261 355.644 736.083 355.876C736.905 356.102 737.621 356.433 738.231 356.871C738.841 357.302 739.312 357.832 739.643 358.462C739.981 359.091 740.15 359.811 740.15 360.619V371H735.576V368.872H735.457C735.185 369.389 734.837 369.827 734.413 370.185C733.995 370.543 733.502 370.811 732.931 370.99C732.368 371.169 731.732 371.259 731.022 371.259ZM732.524 368.077C733.047 368.077 733.518 367.971 733.936 367.759C734.36 367.546 734.698 367.255 734.95 366.884C735.202 366.506 735.328 366.068 735.328 365.571V364.119C735.189 364.192 735.02 364.259 734.821 364.318C734.628 364.378 734.416 364.434 734.184 364.487C733.952 364.54 733.714 364.587 733.468 364.626C733.223 364.666 732.988 364.703 732.762 364.736C732.305 364.809 731.914 364.921 731.589 365.074C731.271 365.226 731.026 365.425 730.853 365.67C730.688 365.909 730.605 366.194 730.605 366.526C730.605 367.029 730.784 367.414 731.142 367.679C731.506 367.944 731.967 368.077 732.524 368.077ZM747.985 350.636V371H743.123V350.636H747.985ZM757.096 371V355.727H761.719V358.531H761.888C762.207 357.603 762.744 356.871 763.499 356.334C764.255 355.797 765.156 355.528 766.204 355.528C767.264 355.528 768.173 355.8 768.928 356.344C769.684 356.887 770.165 357.616 770.37 358.531H770.529C770.814 357.623 771.371 356.897 772.2 356.354C773.028 355.804 774.006 355.528 775.133 355.528C776.578 355.528 777.751 355.992 778.653 356.92C779.554 357.842 780.005 359.108 780.005 360.719V371H775.143V361.832C775.143 361.07 774.947 360.49 774.556 360.092C774.165 359.688 773.658 359.486 773.035 359.486C772.365 359.486 771.838 359.705 771.454 360.142C771.076 360.573 770.887 361.153 770.887 361.882V371H766.214V361.783C766.214 361.073 766.022 360.513 765.637 360.102C765.253 359.691 764.746 359.486 764.116 359.486C763.692 359.486 763.317 359.589 762.992 359.794C762.667 359.993 762.412 360.278 762.227 360.649C762.048 361.02 761.958 361.458 761.958 361.962V371H757.096ZM790.157 371.288C788.559 371.288 787.181 370.973 786.021 370.344C784.867 369.707 783.979 368.803 783.356 367.629C782.739 366.449 782.431 365.047 782.431 363.423C782.431 361.846 782.743 360.467 783.366 359.287C783.989 358.1 784.867 357.179 786.001 356.523C787.134 355.86 788.47 355.528 790.008 355.528C791.095 355.528 792.089 355.697 792.991 356.036C793.892 356.374 794.671 356.874 795.327 357.537C795.984 358.2 796.494 359.018 796.859 359.993C797.223 360.961 797.406 362.071 797.406 363.324V364.537H784.131V361.713H792.881C792.875 361.196 792.752 360.735 792.513 360.331C792.275 359.927 791.947 359.612 791.529 359.386C791.118 359.154 790.644 359.038 790.107 359.038C789.564 359.038 789.076 359.161 788.646 359.406C788.215 359.645 787.873 359.973 787.621 360.391C787.37 360.802 787.237 361.269 787.224 361.793V364.666C787.224 365.289 787.346 365.836 787.592 366.307C787.837 366.771 788.185 367.132 788.636 367.391C789.086 367.649 789.623 367.778 790.246 367.778C790.677 367.778 791.068 367.719 791.42 367.599C791.771 367.48 792.073 367.304 792.325 367.072C792.576 366.84 792.765 366.555 792.891 366.217L797.356 366.347C797.17 367.348 796.763 368.219 796.133 368.962C795.51 369.697 794.691 370.271 793.677 370.682C792.663 371.086 791.489 371.288 790.157 371.288ZM805.467 371.219C804.34 371.219 803.316 370.927 802.395 370.344C801.473 369.76 800.737 368.885 800.187 367.719C799.637 366.552 799.362 365.104 799.362 363.374C799.362 361.577 799.647 360.099 800.217 358.939C800.787 357.779 801.533 356.92 802.454 356.364C803.382 355.807 804.38 355.528 805.447 355.528C806.249 355.528 806.935 355.668 807.505 355.946C808.075 356.218 808.546 356.569 808.917 357C809.288 357.431 809.57 357.878 809.762 358.342H809.862V350.636H814.724V371H809.912V368.524H809.762C809.557 368.995 809.265 369.436 808.887 369.847C808.51 370.258 808.036 370.589 807.466 370.841C806.902 371.093 806.236 371.219 805.467 371.219ZM807.157 367.43C807.747 367.43 808.251 367.265 808.669 366.933C809.086 366.595 809.408 366.121 809.633 365.511C809.859 364.902 809.971 364.186 809.971 363.364C809.971 362.528 809.859 361.809 809.633 361.206C809.414 360.603 809.093 360.139 808.669 359.814C808.251 359.489 807.747 359.327 807.157 359.327C806.554 359.327 806.044 359.492 805.626 359.824C805.208 360.155 804.89 360.623 804.672 361.226C804.459 361.829 804.353 362.542 804.353 363.364C804.353 364.186 804.463 364.902 804.681 365.511C804.9 366.121 805.215 366.595 805.626 366.933C806.044 367.265 806.554 367.43 807.157 367.43ZM817.799 371V355.727H822.661V371H817.799ZM820.235 353.947C819.552 353.947 818.966 353.722 818.475 353.271C817.985 352.814 817.739 352.264 817.739 351.621C817.739 350.984 817.985 350.441 818.475 349.99C818.966 349.533 819.552 349.304 820.235 349.304C820.924 349.304 821.511 349.533 821.995 349.99C822.486 350.441 822.731 350.984 822.731 351.621C822.731 352.264 822.486 352.814 821.995 353.271C821.511 353.722 820.924 353.947 820.235 353.947ZM830.061 371.259C829.087 371.259 828.222 371.096 827.466 370.771C826.717 370.44 826.124 369.943 825.686 369.28C825.256 368.61 825.04 367.772 825.04 366.764C825.04 365.916 825.189 365.2 825.488 364.616C825.786 364.033 826.197 363.559 826.721 363.195C827.244 362.83 827.847 362.555 828.53 362.369C829.213 362.177 829.942 362.048 830.718 361.982C831.586 361.902 832.285 361.819 832.816 361.733C833.346 361.64 833.73 361.511 833.969 361.345C834.214 361.173 834.337 360.931 834.337 360.619V360.57C834.337 360.059 834.161 359.665 833.81 359.386C833.459 359.108 832.985 358.969 832.388 358.969C831.745 358.969 831.228 359.108 830.837 359.386C830.446 359.665 830.197 360.049 830.091 360.54L825.607 360.381C825.739 359.453 826.081 358.624 826.631 357.895C827.188 357.159 827.95 356.582 828.918 356.165C829.892 355.741 831.062 355.528 832.428 355.528C833.402 355.528 834.301 355.644 835.123 355.876C835.944 356.102 836.66 356.433 837.27 356.871C837.88 357.302 838.351 357.832 838.682 358.462C839.02 359.091 839.189 359.811 839.189 360.619V371H834.615V368.872H834.496C834.224 369.389 833.876 369.827 833.452 370.185C833.034 370.543 832.541 370.811 831.971 370.99C831.407 371.169 830.771 371.259 830.061 371.259ZM831.563 368.077C832.087 368.077 832.557 367.971 832.975 367.759C833.399 367.546 833.737 367.255 833.989 366.884C834.241 366.506 834.367 366.068 834.367 365.571V364.119C834.228 364.192 834.059 364.259 833.86 364.318C833.667 364.378 833.455 364.434 833.223 364.487C832.991 364.54 832.753 364.587 832.507 364.626C832.262 364.666 832.027 364.703 831.801 364.736C831.344 364.809 830.953 364.921 830.628 365.074C830.31 365.226 830.065 365.425 829.892 365.67C829.727 365.909 829.644 366.194 829.644 366.526C829.644 367.029 829.823 367.414 830.181 367.679C830.545 367.944 831.006 368.077 831.563 368.077Z" fill="white"/>
</svg>
